#!OML:ASF F:\VICON\USERDATA\INSTALL\rory7\rory7.ASF
:FULLY-SPECIFIED
:DEGREES
899
root -5.57039 18.1496 -1.77783 -2.64321 -77.6012 -3.82816
lowerback 12.9684 3.05982 1.48141
upperback -0.514981 4.12019 -1.96379
thorax -7.5724 1.89444 -3.7094
lowerneck -5.98804 3.03326 -6.04314
upperneck 7.90152 3.78172 9.68407
head 3.0068 2.10281 4.08579
rclavicle -5.59579e-014 1.66979e-014
rhumerus 86.349 -31.2282 -38.0468
rradius 30.666
rwrist 30.5148
rhand -35.0484 0.45348
rfingers 7.12502
rthumb -8.19146 -29.3677
lclavicle -5.59579e-014 1.66979e-014
lhumerus 70.2099 30.3064 22.8633
lradius 71.4494
lwrist -4.40687
lhand -27.5405 24.2475
lfingers 7.12502
lthumb -0.942079 54.2252
rfemur 0.51997 15.6464 22.8434
rtibia 32.369
rfoot -23.6154 -13.695
rtoes -8.74805
lfemur -2.25933 2.10971 -15.3942
ltibia 41.4285
lfoot -19.216 -19.1477
ltoes -16.7199
900
root -5.56538 18.1557 -1.73491 -1.17698 -77.3401 -5.5828
lowerback 13.1453 3.0872 1.69198
upperback -0.407965 4.20688 -1.75422
thorax -7.55218 1.93398 -3.62804
lowerneck -5.94566 2.92362 -6.09918
upperneck 8.00911 3.61958 9.79602
head 3.04142 2.02479 4.12552
rclavicle 2.89977e-014 9.54166e-015
rhumerus 85.5638 -31.1639 -37.8011
rradius 30.7628
rwrist 30.2942
rhand -36.4145 0.0876755
rfingers 7.12502
rthumb -9.50972 -29.6777
lclavicle 2.89977e-014 9.54166e-015
lhumerus 70.3615 30.0945 23.325
lradius 72.9151
lwrist -4.04273
lhand -28.4884 24.068
lfingers 7.12502
lthumb -1.85761 54.0396
rfemur 1.05674 15.4204 23.147
rtibia 31.934
rfoot -23.5099 -13.4861
rtoes -8.51151
lfemur -2.64004 2.09821 -14.646
ltibia 42.4153
lfoot -19.1925 -19.3289
ltoes -16.5058
901
root -5.56373 18.1647 -1.68676 0.73537 -77.0852 -7.54793
lowerback 13.0185 3.13467 1.94996
upperback -0.374452 4.32758 -1.53687
thorax -7.43422 1.99177 -3.55313
lowerneck -5.9154 2.79578 -6.11062
upperneck 8.20934 3.42874 9.83659
head 3.11061 1.93187 4.13705
rclavicle -7.83957e-014 4.77083e-015
rhumerus 84.4509 -31.2336 -37.1373
rradius 30.9854
rwrist 29.7176
rhand -37.4025 0.106955
rfingers 7.12502
rthumb -10.4629 -29.6127
lclavicle -7.83957e-014 4.77083e-015
lhumerus 70.7043 29.9162 23.8225
lradius 74.2203
lwrist -4.01748
lhand -28.7091 24.0689
lfingers 7.12502
lthumb -2.07076 54.0386
rfemur 1.3423 15.0496 23.3946
rtibia 31.4162
rfoot -23.1074 -13.3829
rtoes -9.2281
lfemur -3.16986 1.98776 -13.845
ltibia 43.2024
lfoot -19.7469 -18.524
ltoes -16.3052
902
root -5.56855 18.1883 -1.63172 2.35677 -76.901 -9.00086
lowerback 12.5837 3.16727 2.17622
upperback -0.386272 4.41215 -1.4049
thorax -7.18902 2.03569 -3.52391
lowerneck -5.8448 2.72564 -6.16086
upperneck 8.36715 3.30765 10.0134
head 3.15125 1.87658 4.19749
rclavicle -3.32467e-014 7.95139e-015
rhumerus 83.4423 -31.2215 -36.711
rradius 31.2048
rwrist 29.1457
rhand -37.8451 0.686447
rfingers 7.12502
rthumb -10.8899 -29.0112
lclavicle -3.32467e-014 7.95139e-015
lhumerus 71.0321 29.7724 24.0816
lradius 75.3064
lwrist -3.8787
lhand -28.7883 24.0693
lfingers 7.12502
lthumb -2.14725 54.0382
rfemur 1.448 14.9673 23.4822
rtibia 30.8698
rfoot -22.6764 -13.2309
rtoes -9.58402
lfemur -3.77152 1.83919 -13.2126
ltibia 43.7164
lfoot -21.0737 -16.1748
ltoes -18.1762
903
root -5.57741 18.2233 -1.57406 2.71758 -76.892 -9.04347
lowerback 11.9992 3.23013 2.03727
upperback -0.419826 4.47041 -1.38859
thorax -6.90261 2.07881 -3.39762
lowerneck -5.88427 2.71599 -6.22091
upperneck 8.61838 3.25346 10.3308
head 3.22965 1.86347 4.30951
rclavicle 2.35436e-014 -1.66979e-014
rhumerus 82.6557 -31.093 -36.6454
rradius 31.3396
rwrist 28.6679
rhand -38.0911 0.73145
rfingers 7.12502
rthumb -11.1271 -28.9535
lclavicle 2.35436e-014 -1.66979e-014
lhumerus 71.2998 29.7052 24.0953
lradius 76.2779
lwrist -3.73891
lhand -28.7477 24.3021
lfingers 7.12502
lthumb -2.10804 54.2714
rfemur 1.49915 15.4556 23.2707
rtibia 30.2875
rfoot -22.283 -13.2409
rtoes -9.82411
lfemur -4.31603 1.75769 -12.9285
ltibia 43.9178
lfoot -22.2846 -13.1375
ltoes -19.9794
904
root -5.58626 18.2567 -1.51334 2.96926 -76.9803 -8.9737
lowerback 11.4119 3.32854 1.82229
upperback -0.433735 4.56477 -1.39767
thorax -6.59547 2.14167 -3.25962
lowerneck -6.08174 2.69201 -6.23249
upperneck 8.96376 3.16851 10.6952
head 3.36551 1.84405 4.43273
rclavicle -4.60683e-014 -6.36111e-015
rhumerus 82.1421 -30.9208 -36.8835
rradius 31.2343
rwrist 28.4981
rhand -38.3935 0.131154
rfingers 7.12502
rthumb -11.4188 -29.5379
lclavicle -4.60683e-014 -6.36111e-015
lhumerus 71.659 29.7759 23.9607
lradius 77.1797
lwrist -3.2891
lhand -28.4559 25.0925
lfingers 7.12502
lthumb -1.82619 55.0645
rfemur 1.57184 15.9973 23.0019
rtibia 29.6543
rfoot -21.9826 -13.1723
rtoes -9.69081
lfemur -4.73282 1.72812 -12.6012
ltibia 43.8312
lfoot -23.0556 -10.4718
ltoes -19.8463
905
root -5.59459 18.286 -1.45154 3.76423 -77.0625 -9.60899
lowerback 11.0092 3.42915 1.74029
upperback -0.434357 4.68668 -1.36237
thorax -6.37068 2.21144 -3.16558
lowerneck -6.18874 2.63981 -6.20937
upperneck 9.19518 3.04298 11.065
head 3.45687 1.8032 4.54648
rclavicle 2.01145e-014 7.95139e-015
rhumerus 81.2387 -30.9254 -36.4995
rradius 31.1129
rwrist 27.9422
rhand -38.6244 -0.297255
rfingers 7.12502
rthumb -11.6415 -29.9539
lclavicle 2.01145e-014 7.95139e-015
lhumerus 72.0797 29.8562 23.783
lradius 77.9235
lwrist -2.84132
lhand -28.2054 25.8569
lfingers 7.12502
lthumb -1.58426 55.8308
rfemur 1.8342 16.2915 22.909
rtibia 28.9405
rfoot -21.6352 -13.0305
rtoes -9.49169
lfemur -4.91792 1.52238 -12.0838
ltibia 43.5384
lfoot -23.8421 -7.89178
ltoes -19.0332
906
root -5.59991 18.3116 -1.39249 4.69526 -77.0825 -10.5379
lowerback 10.8417 3.48388 1.74655
upperback -0.418428 4.75999 -1.34266
thorax -6.25594 2.25086 -3.14592
lowerneck -6.27764 2.60019 -6.11079
upperneck 9.33612 2.93413 11.4027
head 3.51919 1.7708 4.63615
rclavicle 1.2188e-014 -5.56597e-015
rhumerus 80.126 -31.0536 -35.7975
rradius 30.9364
rwrist 27.0581
rhand -38.6885 -0.0973019
rfingers 7.12502
rthumb -11.7033 -29.7504
lclavicle 1.2188e-014 -5.56597e-015
lhumerus 72.4815 29.89 23.5524
lradius 78.4262
lwrist -3.14307
lhand -28.4315 25.9555
lfingers 7.12502
lthumb -1.80267 55.9276
rfemur 2.29588 16.4233 22.9649
rtibia 28.1275
rfoot -20.9649 -13.1823
rtoes -10.6413
lfemur -4.90745 1.16148 -11.4833
ltibia 43.1017
lfoot -24.5915 -5.03167
ltoes -18.1234
907
root -5.60282 18.3369 -1.33075 7.20814 -76.9861 -13.0779
lowerback 10.6822 3.44054 2.16117
upperback -0.388847 4.76188 -1.2216
thorax -6.11151 2.2452 -3.23652
lowerneck -6.4905 2.62323 -6.05441
upperneck 9.53446 2.91461 11.7335
head 3.61104 1.7859 4.73824
rclavicle -6.56238e-014 -9.54166e-015
rhumerus 79.4283 -31.0728 -35.4928
rradius 30.545
rwrist 26.3322
rhand -38.7171 1.05262
rfingers 7.12502
rthumb -11.7308 -28.5989
lclavicle -6.56238e-014 -9.54166e-015
lhumerus 72.8513 30.0289 23.2586
lradius 78.7231
lwrist -3.96929
lhand -28.7552 25.8136
lfingers 7.12502
lthumb -2.11531 55.7828
rfemur 2.7508 16.6436 23.4709
rtibia 27.2949
rfoot -20.2788 -13.5353
rtoes -11.8341
lfemur -4.89788 0.734487 -10.41
ltibia 42.5049
lfoot -24.9714 -2.64887
ltoes -15.6089
908
root -5.60574 18.3649 -1.26233 9.85796 -76.9212 -15.6983
lowerback 10.4619 3.3773 2.58816
upperback -0.379394 4.73997 -1.03852
thorax -5.96025 2.22906 -3.26224
lowerneck -6.70362 2.69893 -6.16278
upperneck 9.77467 2.97629 12.1033
head 3.70406 1.83879 4.88485
rclavicle 1.64743e-014 3.97569e-015
rhumerus 78.934 -30.9108 -35.2543
rradius 30.1115
rwrist 25.8418
rhand -38.7463 1.75203
rfingers 7.12502
rthumb -11.759 -27.8979
lclavicle 1.64743e-014 3.97569e-015
lhumerus 73.0947 30.2809 22.9172
lradius 78.9046
lwrist -4.72719
lhand -28.9006 25.4425
lfingers 7.12502
lthumb -2.2557 55.4104
rfemur 3.06727 16.7973 23.9241
rtibia 26.5563
rfoot -19.6584 -13.7222
rtoes -12.6355
lfemur -4.86045 0.135279 -9.32915
ltibia 41.6932
lfoot -25.2959 -0.718534
ltoes -12.0087
909
root -5.60509 18.3934 -1.19402 9.18794 -77.0237 -14.9928
lowerback 10.402 3.35606 2.19787
upperback -0.359708 4.66254 -1.02211
thorax -5.94323 2.20365 -3.01126
lowerneck -6.85817 2.76156 -6.23644
upperneck 9.93487 3.04309 12.2706
head 3.76704 1.88377 4.95972
rclavicle -2.49475e-014 1.59028e-015
rhumerus 78.3257 -30.6969 -34.6927
rradius 29.768
rwrist 25.4268
rhand -38.8085 1.52303
rfingers 7.12502
rthumb -11.819 -28.1235
lclavicle -2.49475e-014 1.59028e-015
lhumerus 73.2172 30.6309 22.568
lradius 79.106
lwrist -4.99416
lhand -28.8613 25.1461
lfingers 7.12502
lthumb -2.21776 55.1143
rfemur 3.40312 16.8847 23.5232
rtibia 25.9305
rfoot -19.1883 -13.7748
rtoes -13.0093
lfemur -4.63212 -0.549065 -9.16867
ltibia 40.6762
lfoot -25.6779 1.68754
ltoes -10.469
910
root -5.60261 18.4188 -1.12657 6.61653 -77.1578 -12.4531
lowerback 10.4986 3.38135 1.44771
upperback -0.304112 4.5926 -1.16796
thorax -5.98971 2.18803 -2.74031
lowerneck -6.86266 2.77483 -6.15095
upperneck 9.85552 3.05926 12.2592
head 3.74447 1.89312 4.94056
rclavicle -7.2047e-014 2.22639e-014
rhumerus 77.6223 -30.6133 -34.0239
rradius 29.3543
rwrist 25.0466
rhand -38.9701 1.92318
rfingers 7.12502
rthumb -11.9748 -27.7143
lclavicle -7.2047e-014 2.22639e-014
lhumerus 73.6291 30.9703 22.4129
lradius 79.2733
lwrist -4.74268
lhand -28.7949 25.4089
lfingers 7.12502
lthumb -2.15367 55.3778
rfemur 3.89318 17.2539 22.7898
rtibia 25.3674
rfoot -19.1599 -13.9917
rtoes -12.2485
lfemur -4.23667 -1.21991 -9.47876
ltibia 39.5445
lfoot -25.8261 4.25656
ltoes -9.91923
911
root -5.60166 18.4377 -1.05616 6.73095 -77.1253 -12.4616
lowerback 10.3554 3.33518 1.31837
upperback -0.304008 4.5144 -1.16551
thorax -5.92321 2.1552 -2.6439
lowerneck -6.74762 2.80915 -6.15776
upperneck 9.61309 3.11892 12.3055
head 3.64585 1.91755 4.95
rclavicle -6.58598e-014 2.3059e-014
rhumerus 77.035 -30.5239 -33.4362
rradius 28.8541
rwrist 24.7168
rhand -39.1059 2.12841
rfingers 7.12502
rthumb -12.1058 -27.5014
lclavicle -6.58598e-014 2.3059e-014
lhumerus 74.1166 31.2894 22.3419
lradius 79.3242
lwrist -4.49498
lhand -28.5853 25.603
lfingers 7.12502
lthumb -1.95121 55.5738
rfemur 4.06521 17.5636 22.6366
rtibia 25.0029
rfoot -19.3321 -14.2496
rtoes -11.3302
lfemur -4.0053 -1.88229 -9.09448
ltibia 38.2617
lfoot -25.7619 6.34801
ltoes -8.5322
912
root -5.6 18.4539 -0.981198 9.71028 -76.9504 -15.145
lowerback 9.92993 3.21024 1.7926
upperback -0.374578 4.41636 -0.969268
thorax -5.7429 2.10105 -2.66235
lowerneck -6.72199 2.87053 -6.24507
upperneck 9.49674 3.21665 12.3578
head 3.59457 1.96297 4.98129
rclavicle 1.12686e-014 8.74653e-015
rhumerus 76.5153 -30.3694 -32.8188
rradius 28.5104
rwrist 24.1775
rhand -39.0144 0.581165
rfingers 7.12502
rthumb -12.0175 -29.0538
lclavicle 1.12686e-014 8.74653e-015
lhumerus 74.5542 31.6077 22.3182
lradius 79.2478
lwrist -4.4619
lhand -28.2556 25.4919
lfingers 7.12502
lthumb -1.63274 55.4654
rfemur 3.87776 17.5357 23.0022
rtibia 24.6368
rfoot -19.138 -14.493
rtoes -11.5205
lfemur -4.09268 -2.52554 -7.98152
ltibia 37.0245
lfoot -25.7772 7.95049
ltoes -6.67548
913
root -5.59248 18.4657 -0.91322 5.5776 -77.2655 -11.2316
lowerback 10.3078 3.27455 0.610854
upperback -0.25704 4.34797 -1.12723
thorax -5.91085 2.09496 -2.18014
lowerneck -6.51123 2.88409 -6.13266
upperneck 9.1664 3.27696 12.0446
head 3.46331 1.97174 4.85389
rclavicle 6.64314e-014 -7.15625e-015
rhumerus 76.1221 -30.2637 -32.4072
rradius 28.2133
rwrist 23.647
rhand -38.9505 -0.189851
rfingers 7.12502
rthumb -11.9559 -29.8284
lclavicle 6.64314e-014 -7.15625e-015
lhumerus 75.1255 31.8401 22.4705
lradius 78.9412
lwrist -4.58814
lhand -28.3058 25.3953
lfingers 7.12502
lthumb -1.6813 55.3684
rfemur 4.47819 17.8392 21.9637
rtibia 24.2145
rfoot -18.8355 -14.9312
rtoes -12.2357
lfemur -3.37192 -3.27578 -8.70502
ltibia 35.8091
lfoot -25.9302 9.81258
ltoes -5.21004
